<?xml version="1.0" encoding="UTF-8"?>
<svg width="48px" height="48px" viewBox="0 0 48 48" version="1.1" xmlns="http://www.w3.org/2000/svg" xmlns:xlink="http://www.w3.org/1999/xlink">
    <!-- Generator: Sketch 64 (93537) - https://sketch.com -->
    <title>切换</title>
    <desc>Created with Sketch.</desc>
    <g id="切换" stroke="none" stroke-width="1" fill="none" fill-rule="evenodd">
        <rect id="矩形" opacity="0.200000003" x="-3" y="-3" width="54" height="54"></rect>
        <rect id="矩形" opacity="0.200000003" x="5" y="5" width="38" height="38"></rect>
        <g id="编组" transform="translate(8.000000, 15.000000)" fill="#FFFFFF">
            <g id="编组-2">
                <path d="M27,-4.21884749e-15 L31.5526874,4.49981493 C31.8222928,4.67894257 32,4.98538508 32,5.33333333 C32,5.88561808 31.5522847,6.33333333 31,6.33333333 L1,6.33333333 C0.44771525,6.33333333 6.76353751e-17,5.88561808 0,5.33333333 C-6.76353751e-17,4.78104858 0.44771525,4.33333333 1,4.33333333 L27,4.333 L27,-4.21884749e-15 Z" id="矩形-3"></path>
                <path d="M27,12 L31.5526874,16.4998149 C31.8222928,16.6789426 32,16.9853851 32,17.3333333 C32,17.8856181 31.5522847,18.3333333 31,18.3333333 L1,18.3333333 C0.44771525,18.3333333 6.76353751e-17,17.8856181 0,17.3333333 C-6.76353751e-17,16.7810486 0.44771525,16.3333333 1,16.3333333 L27,16.333 L27,12 Z" id="矩形-3" transform="translate(16.000000, 15.166667) scale(-1, -1) translate(-16.000000, -15.166667) "></path>
            </g>
        </g>
    </g>
</svg>